<?xml version="1.0" standalone="no"?>
<!DOCTYPE svg PUBLIC "-//W3C//DTD SVG 20010904//EN"
 "http://www.w3.org/TR/2001/REC-SVG-20010904/DTD/svg10.dtd">
<svg version="1.0" xmlns="http://www.w3.org/2000/svg"
 width="384.000000pt" height="384.000000pt" viewBox="0 0 384.000000 384.000000"
 preserveAspectRatio="xMidYMid meet">
<metadata>
Created by potrace 1.14, written by Peter Selinger 2001-2017
</metadata>
<g transform="translate(0.000000,384.000000) scale(0.100000,-0.100000)"
fill="#000000" stroke="none">
<path d="M152 3778 c-15 -4 -39 -19 -53 -34 l-24 -26 -1 -1776 c-2 -1922 -5
-1811 51 -1848 27 -18 77 -23 117 -13 16 4 28 5 28 1 0 -8 188 -8 196 0 3 4
18 3 32 -1 32 -8 214 -6 236 2 9 4 16 3 16 -1 0 -8 187 -8 196 0 3 4 18 3 32
-1 32 -8 214 -6 236 2 9 4 16 3 16 -1 0 -8 187 -8 196 0 3 4 18 3 32 -1 32 -8
214 -6 236 2 9 4 16 3 16 -1 0 -8 187 -8 196 0 3 4 18 3 32 -1 32 -8 214 -6
236 2 9 4 16 3 16 -1 0 -8 187 -8 196 0 3 4 18 3 32 -1 33 -8 373 -6 396 2 9
4 16 3 16 -1 0 -8 187 -8 196 0 3 4 18 3 32 -1 32 -8 214 -6 236 2 9 4 16 3
16 -1 0 -8 187 -8 196 0 3 4 18 3 32 -1 24 -6 45 -6 144 -2 15 1 42 14 60 30
l33 29 3 1785 2 1784 -21 26 c-11 15 -30 32 -42 39 -17 9 -444 12 -1779 12
-967 1 -1771 -2 -1786 -6z"/>
</g>
</svg>
